<svg width="40" height="40" viewBox="0 0 40 40" fill="none" xmlns="http://www.w3.org/2000/svg">
<rect width="40" height="40" rx="20" fill="#53335D"/>
<path d="M24.1171 12.5C25.2346 12.5 26.3096 12.9417 27.1005 13.7342C27.8921 14.525 28.3346 15.5917 28.3346 16.7083V23.2917C28.3346 25.6167 26.443 27.5 24.1171 27.5H15.8846C13.5588 27.5 11.668 25.6167 11.668 23.2917V16.7083C11.668 14.3833 13.5505 12.5 15.8846 12.5H24.1171ZM25.0596 16.8333C24.8846 16.8242 24.718 16.8833 24.5921 17L20.8346 20C20.3513 20.4008 19.6588 20.4008 19.168 20L15.418 17C15.1588 16.8083 14.8005 16.8333 14.5846 17.0583C14.3596 17.2833 14.3346 17.6417 14.5255 17.8917L14.6346 18L18.4263 20.9583C18.893 21.325 19.4588 21.525 20.0513 21.525C20.6421 21.525 21.218 21.325 21.6838 20.9583L25.443 17.95L25.5096 17.8833C25.7088 17.6417 25.7088 17.2917 25.5005 17.05C25.3846 16.9258 25.2255 16.85 25.0596 16.8333Z" fill="#F5C04E"/>
</svg>
